<?xml version="1.0" ?><!DOCTYPE svg  PUBLIC '-//W3C//DTD SVG 1.1//EN'  'http://www.w3.org/Graphics/SVG/1.1/DTD/svg11.dtd'><svg enable-background="new 0 0 512 512" height="512px" version="1.1" viewBox="0 0 512 512" width="512px" xml:space="preserve" xmlns="http://www.w3.org/2000/svg" xmlns:xlink="http://www.w3.org/1999/xlink"><g id="Colors"><g><g><g><path d="M318,441.125c-63.5-49.931-125.5,0.944-125.5,0.944l-3.407,2.316      C171.523,455.842,150.539,462.5,128,462.5c-61.856,0-112-49.895-112-111.75S66.144,239,128,239h256      c61.855,0,112,49.895,112,111.75s-50.145,111.875-112,111.875c-23.747,0-45.768-7.4-63.888-20.019L318,441.125z" fill="#F7F8F9"/></g></g></g><g><g><g><circle cx="384.822" cy="312.218" fill="#DEE0E2" r="21.396"/></g></g></g><g><g><g><circle cx="384.822" cy="406.218" fill="#DEE0E2" r="21.396"/></g></g></g><g><g><g><circle cx="336.822" cy="359.218" fill="#DEE0E2" r="21.396"/></g></g></g><g><g><g><circle cx="432.822" cy="359.218" fill="#DEE0E2" r="21.396"/></g></g></g><g><g><g><path d="M190,350.416v25.34c0,4.994-3.682,9.244-8.678,9.244H150v31.48c0,4.995-4.407,9.52-9.402,9.52h-25.34      c-4.995,0-8.257-4.524-8.257-9.52V385H73.628c-4.996,0-8.628-4.25-8.628-9.244v-25.34c0-4.996,3.632-8.416,8.628-8.416H107      v-33.215c0-4.994,3.262-8.785,8.257-8.785h25.34c4.996,0,9.402,3.791,9.402,8.785V342h31.322      C186.318,342,190,345.42,190,350.416z" fill="#DEE0E2"/></g></g></g><g><g><g><path d="M190,331.15v25.339c0,4.995-3.682,8.511-8.678,8.511H150v32.215c0,4.994-4.407,8.785-9.402,8.785h-25.34      c-4.995,0-8.257-3.791-8.257-8.785V365H73.628c-4.996,0-8.628-3.516-8.628-8.511V331.15c0-4.996,3.632-9.15,8.628-9.15H107      v-32.48c0-4.995,3.262-9.52,8.257-9.52h25.34c4.996,0,9.402,4.524,9.402,9.52V322h31.322C186.318,322,190,326.154,190,331.15z" fill="#B0B3C1"/></g></g></g><g><g><g><path d="M23.5,377.97c0,0,27,67.618,104,67.618c0,0,32.167,0.529,56.833-19.897S272,382.547,321,422.52      c0,0,25.001,21.837,63.334,21.837S467.5,425.514,486,381.14c0,0-12,81.485-104,81.485c0,0-37.667-0.308-65-23.552      c-27.333-23.243-64.412-33.546-115.04-4.975C151.333,462.67,149,465.135,107.333,459.5S29.333,420.759,23.5,377.97z" fill="#DEE0E2"/></g></g></g><g opacity="0.7"><g><g><path d="M30.25,301.5c0,0,29.75-47.5,97.75-47.5s257,0,257,0s64-1.5,95.5,47.5c0,0-22-61.5-92.5-61.5      s-260,0-260,0S63,230.5,30.25,301.5z" fill="#FFFFFF"/></g></g></g><g><g><g><path d="M111.467,359c0,4.33-3.556,8-7.944,8H73.655c-4.387,0-7.944-3.67-7.944-8l0,0c0-4.33,3.557-8,7.944-8      h29.869C107.911,351,111.467,354.67,111.467,359L111.467,359z" fill="#9195A3"/></g></g></g><g><g><g><path d="M190.797,359c0,4.33-3.557,8-7.944,8h-29.869c-4.388,0-7.944-3.67-7.944-8l0,0c0-4.33,3.556-8,7.944-8      h29.869C187.241,351,190.797,354.67,190.797,359L190.797,359z" fill="#9195A3"/></g></g></g><g opacity="0.3"><g><g><path d="M111.467,330c0,4.33-3.556,8-7.944,8H73.655c-4.387,0-7.944-3.67-7.944-8l0,0c0-4.33,3.557-8,7.944-8      h29.869C107.911,322,111.467,325.67,111.467,330L111.467,330z" fill="#FFFFFF"/></g></g></g><g opacity="0.3"><g><g><path d="M190.797,330c0,4.33-3.557,8-7.944,8h-29.869c-4.388,0-7.944-3.67-7.944-8l0,0c0-4.33,3.556-8,7.944-8      h29.869C187.241,322,190.797,325.67,190.797,330L190.797,330z" fill="#FFFFFF"/></g></g></g><g><g><g><path d="M149.999,398c0,4.459-3.557,8-7.944,8h-29.869c-4.387,0-7.944-3.541-7.944-8l0,0      c0-4.461,3.557-8,7.944-8h29.869C146.442,390,149.999,393.539,149.999,398L149.999,398z" fill="#9195A3"/></g></g></g><g opacity="0.3"><g><g><path d="M149.999,288.5c0,4.695-3.557,8.5-7.944,8.5h-29.869c-4.387,0-7.944-3.805-7.944-8.5l0,0      c0-4.695,3.557-8.5,7.944-8.5h29.869C146.442,280,149.999,283.805,149.999,288.5L149.999,288.5z" fill="#FFFFFF"/></g></g></g><g><g><g><circle cx="384.822" cy="297.218" fill="#B9DDFC" r="21.396"/></g></g></g><g><g><g><path d="M402.463,283.47c0,0,5.899,16.466-10.323,22.851c-12.639,4.976-26.264-5.383-27.581-16.881      c0,0-4.048,11.002,9.943,21.994C388.494,322.425,417.228,306.368,402.463,283.47z" fill="#94C5EA"/></g></g></g><g opacity="0.7"><g><g><path d="M365.29,302.564c0,0,2.336-13.034,15.71-16.064c13.247-3.003,24.326,8.61,22.896,20.094      c0,0,8.12-7.392-2.888-21.37C389.998,271.244,361.093,278.561,365.29,302.564z" fill="#FFFFFF"/></g></g></g><g><g><g><circle cx="384.822" cy="391.218" fill="#FFD815" r="21.396"/></g></g></g><g><g><g><path d="M402.463,377.47c0,0,5.899,16.466-10.323,22.851c-12.639,4.976-26.264-5.383-27.581-16.881      c0,0-4.048,11.002,9.943,21.994C388.494,416.425,417.228,400.368,402.463,377.47z" fill="#F7C90B"/></g></g></g><g opacity="0.7"><g><g><path d="M365.29,396.564c0,0,2.336-13.034,15.71-16.064c13.247-3.003,24.326,8.61,22.896,20.094      c0,0,8.12-7.392-2.888-21.37C389.998,365.244,361.093,372.561,365.29,396.564z" fill="#FFFFFF"/></g></g></g><g><g><g><circle cx="336.822" cy="344.218" fill="#9ED8CD" r="21.396"/></g></g></g><g><g><g><path d="M354.463,330.47c0,0,5.899,16.466-10.323,22.851c-12.639,4.976-26.264-5.383-27.581-16.881      c0,0-4.048,11.002,9.943,21.994C340.494,369.425,369.228,353.368,354.463,330.47z" fill="#8FC1B7"/></g></g></g><g opacity="0.7"><g><g><path d="M317.29,349.564c0,0,2.336-13.034,15.71-16.064c13.247-3.003,24.326,8.61,22.896,20.094      c0,0,8.12-7.392-2.888-21.37C341.998,318.244,313.093,325.561,317.29,349.564z" fill="#FFFFFF"/></g></g></g><g><g><g><circle cx="432.822" cy="344.218" fill="#EF5362" r="21.396"/></g></g></g><g><g><g><path d="M450.463,330.47c0,0,5.899,16.466-10.323,22.851c-12.639,4.976-26.264-5.383-27.581-16.881      c0,0-4.048,11.002,9.943,21.994C436.494,369.425,465.228,353.368,450.463,330.47z" fill="#DB2C46"/></g></g></g><g opacity="0.7"><g><g><path d="M413.29,349.564c0,0,2.336-13.034,15.71-16.064c13.247-3.003,24.326,8.61,22.896,20.094      c0,0,8.12-7.392-2.888-21.37C437.998,318.244,409.093,325.561,413.29,349.564z" fill="#FFFFFF"/></g></g></g><g opacity="0.5"><g><g><path d="M304,271c0-2.76,2.24-5,5-5l0,0c2.76,0,5,2.24,5,5l0,0c0,2.76-2.24,5-5,5l0,0      C306.24,276,304,273.76,304,271z M284,271c0-2.76,2.24-5,5-5l0,0c2.76,0,5,2.24,5,5l0,0c0,2.76-2.24,5-5,5l0,0      C286.24,276,284,273.76,284,271z M264,271c0-2.76,2.24-5,5-5l0,0c2.76,0,5,2.24,5,5l0,0c0,2.76-2.24,5-5,5l0,0      C266.24,276,264,273.76,264,271z M244,271c0-2.76,2.24-5,5-5l0,0c2.76,0,5,2.24,5,5l0,0c0,2.76-2.24,5-5,5l0,0      C246.24,276,244,273.76,244,271z M224,271c0-2.76,2.24-5,5-5l0,0c2.76,0,5,2.24,5,5l0,0c0,2.76-2.24,5-5,5l0,0      C226.24,276,224,273.76,224,271z M204,271c0-2.76,2.24-5,5-5l0,0c2.76,0,5,2.24,5,5l0,0c0,2.76-2.24,5-5,5l0,0      C206.24,276,204,273.76,204,271z" fill="#3F456B"/></g></g></g><g><g><g><path d="M191,239v-14.25c0-4.487,3.638-7.75,8.125-7.75h113.75c4.487,0,8.125,3.263,8.125,7.75V239" fill="#B0B3C1"/></g></g></g><g opacity="0.3"><g><g><rect fill="#FFFFFF" height="18" width="17" x="192" y="219"/></g></g></g><g><g><g><rect fill="#9195A3" height="18" width="17" x="304" y="219"/></g></g></g></g><g id="Lines"><g><g><g><g><g><circle cx="276.32" cy="352.27" fill="#DEE0E2" r="12.305"/></g></g></g><g><g><g><circle cx="276.32" cy="352.271" fill="#3F456B" r="6.473"/></g></g></g></g><g><g><g><g><circle cx="238.986" cy="352.27" fill="#DEE0E2" r="12.306"/></g></g></g><g><g><g><circle cx="238.987" cy="352.271" fill="#3F456B" r="6.472"/></g></g></g></g></g><g><g><g><path d="M384,467.625c-24.016,0-47.096-7.232-66.745-20.915l-2.126-1.491c-0.074-0.053-0.147-0.106-0.22-0.163      c-17.62-13.854-36.788-20.88-56.973-20.88c-35.341,0-62,21.541-62.265,21.759c-0.116,0.096-0.236,0.186-0.361,0.27l-3.407,2.316      C172.834,460.955,150.765,467.5,128,467.5c-64.514,0-117-52.374-117-116.75S63.486,234,128,234h256      c64.514,0,117,52.374,117,116.75C501,415.195,448.514,467.625,384,467.625z M320.981,437.109l2.002,1.403      c17.95,12.5,39.055,19.112,61.017,19.112c59,0,107-47.944,107-106.875C491,291.888,443,244,384,244H128      c-59,0-107,47.888-107,106.75S69,457.5,128,457.5c20.82,0,41.001-5.983,58.362-17.303l3.154-2.146      c2.776-2.228,30.739-23.876,68.42-23.876C280.375,414.176,301.587,421.893,320.981,437.109z" fill="#3F456B"/></g></g></g><g><g><g><path d="M140.598,411h-25.34c-7.558,0-13.257-5.927-13.257-13.785V370H73.628C65.859,370,60,364.191,60,356.489      V331.15c0-7.935,5.986-14.15,13.628-14.15H102v-27.48c0-8.142,5.823-14.52,13.257-14.52h25.34      c7.672,0,14.402,6.785,14.402,14.52V317h26.322c7.67,0,13.678,6.216,13.678,14.15v25.339c0,7.702-5.88,13.511-13.678,13.511H155      v27.215C155,404.816,148.539,411,140.598,411z M73.628,327c-2.356,0-3.628,2.139-3.628,4.15v25.339      c0,2.198,1.356,3.511,3.628,3.511H107c2.761,0,5,2.238,5,5v32.215c0,1.138,0.317,3.785,3.257,3.785h25.34      c2.126,0,4.402-1.521,4.402-3.785V365c0-2.762,2.239-5,5-5h31.322c2.269,0,3.678-1.346,3.678-3.511V331.15      c0-2.012-1.289-4.15-3.678-4.15H150c-2.761,0-5-2.238-5-5v-32.48c0-2.281-2.181-4.52-4.402-4.52h-25.34      c-2.116,0-3.257,2.328-3.257,4.52V322c0,2.762-2.239,5-5,5H73.628z" fill="#3F456B"/></g></g></g><g><g><g><path d="M384.822,323.614c-7.051,0-13.68-2.745-18.664-7.73c-4.986-4.984-7.732-11.613-7.732-18.665      c0-7.051,2.746-13.68,7.73-18.665c4.986-4.985,11.615-7.731,18.666-7.731s13.68,2.746,18.665,7.731      c10.291,10.292,10.291,27.038-0.001,37.329C398.502,320.869,391.873,323.614,384.822,323.614z M384.822,280.822      c-4.38,0-8.498,1.705-11.595,4.802c-3.096,3.098-4.802,7.215-4.802,11.595s1.706,8.498,4.803,11.594      c3.097,3.097,7.214,4.802,11.594,4.802s8.497-1.705,11.593-4.802c6.394-6.394,6.394-16.795,0.001-23.188      C393.32,282.527,389.202,280.822,384.822,280.822z" fill="#3F456B"/></g></g></g><g><g><g><path d="M384.822,417.614c-7.051,0-13.68-2.745-18.664-7.73c-4.986-4.984-7.732-11.613-7.732-18.665      c0-7.051,2.746-13.68,7.73-18.665c4.986-4.985,11.615-7.731,18.666-7.731s13.68,2.746,18.665,7.731      c10.291,10.292,10.291,27.038-0.001,37.329C398.502,414.869,391.873,417.614,384.822,417.614z M384.822,374.822      c-4.38,0-8.498,1.705-11.595,4.802c-3.096,3.098-4.802,7.215-4.802,11.595s1.706,8.498,4.803,11.594      c3.097,3.097,7.214,4.802,11.594,4.802s8.497-1.705,11.593-4.802c6.394-6.394,6.394-16.795,0.001-23.188      C393.32,376.527,389.202,374.822,384.822,374.822z" fill="#3F456B"/></g></g></g><g><g><g><path d="M336.822,370.614c-7.051,0-13.68-2.745-18.664-7.73c-4.986-4.984-7.732-11.613-7.732-18.665      c0-7.051,2.746-13.68,7.73-18.665c4.986-4.985,11.615-7.731,18.666-7.731s13.68,2.746,18.665,7.731      c10.291,10.292,10.291,27.038-0.001,37.329C350.502,367.869,343.873,370.614,336.822,370.614z M336.822,327.822      c-4.38,0-8.498,1.705-11.595,4.802c-3.096,3.098-4.802,7.215-4.802,11.595s1.706,8.498,4.803,11.594      c3.097,3.097,7.214,4.802,11.594,4.802s8.497-1.705,11.593-4.802c6.394-6.394,6.394-16.795,0.001-23.188      C345.32,329.527,341.202,327.822,336.822,327.822z" fill="#3F456B"/></g></g></g><g><g><g><path d="M432.822,370.614c-7.051,0-13.68-2.745-18.664-7.73c-4.986-4.984-7.732-11.613-7.732-18.665      c0-7.051,2.746-13.68,7.73-18.665c4.986-4.985,11.615-7.731,18.666-7.731s13.68,2.746,18.665,7.731      c10.291,10.292,10.291,27.038-0.001,37.329C446.502,367.869,439.873,370.614,432.822,370.614z M432.822,327.822      c-4.38,0-8.498,1.705-11.595,4.802c-3.096,3.098-4.802,7.215-4.802,11.595s1.706,8.498,4.803,11.594      c3.097,3.097,7.214,4.802,11.594,4.802s8.497-1.705,11.593-4.802c6.394-6.394,6.394-16.795,0.001-23.188      C441.32,329.527,437.202,327.822,432.822,327.822z" fill="#3F456B"/></g></g></g><g><g><g><path d="M321,244c-2.762,0-5-2.238-5-5v-14.25c0-1.89-1.62-2.75-3.125-2.75h-113.75      c-1.505,0-3.125,0.86-3.125,2.75V239c0,2.762-2.239,5-5,5s-5-2.238-5-5v-14.25c0-7.149,5.765-12.75,13.125-12.75h113.75      c7.359,0,13.125,5.601,13.125,12.75V239C326,241.762,323.762,244,321,244z" fill="#3F456B"/></g></g></g><g><g><g><path d="M256,222c-2.762,0-5-2.238-5-5v-99.899c-0.088-2.333-0.808-29.797,13.239-44.477      c5.794-6.054,13.195-9.124,21.998-9.124c17.031,0,28.598,8.158,34.378,24.249c4.707,13.104,5.055,29.996,5.36,44.899      c0.228,11.108,0.443,21.601,2.339,28.923c2.525,9.755,10.205,20.179,24.186,20.179c6.855,0,12.249-2.125,16.487-6.496      c10.529-10.859,10.021-31.394,10.015-31.6c-0.001-0.052-0.002-0.103-0.002-0.154V16c0-2.762,2.238-5,5-5s5,2.238,5,5v127.433      c0.046,1.872,0.344,25.192-12.833,38.782c-6.136,6.327-14.098,9.535-23.667,9.535c-16.222,0-29.515-10.862-33.867-27.673      c-2.188-8.454-2.415-19.514-2.655-31.224c-0.714-34.753-3.265-59.354-29.74-59.354c-6.053,0-10.885,1.975-14.772,6.038      c-9.497,9.925-10.777,30.248-10.47,37.242c0.003,0.073,0.005,0.146,0.005,0.22v100C261,219.762,258.762,222,256,222z" fill="#3F456B"/></g></g></g></g></svg>