<?xml version="1.0" ?><!DOCTYPE svg  PUBLIC '-//W3C//DTD SVG 1.1//EN'  'http://www.w3.org/Graphics/SVG/1.1/DTD/svg11.dtd'><svg enable-background="new 0 0 512 512" height="512px" id="Layer_1" version="1.1" viewBox="0 0 512 512" width="512px" xml:space="preserve" xmlns="http://www.w3.org/2000/svg" xmlns:xlink="http://www.w3.org/1999/xlink"><path d="M92.472,276.381l45.894,20.25l27.821-29.063c1.756,0.07,3.535,0.145,5.265,0.109l32.276,28.953  l44.223-23.693l-5.786-39.753c1.131-1.332,2.167-2.72,3.225-4.146l42.781-7.605l8.547-49.446l-34.008-19.403l22.402-35.951  L254.107,77.17l-38.182,12.592c-1.527-0.865-3.046-1.729-4.623-2.539l-14.892-40.763l-50.177,0.161l-13.568,37.825  c-1.628,0.666-3.203,1.351-4.782,2.146L86.539,73.187L55.76,112.845l21.408,33.88c-0.473,1.658-0.788,3.388-1.18,5.137  l-36.041,24.365l12.291,48.631l39.992,4.05c1.021,1.409,2.071,2.763,3.199,4.131L92.472,276.381z M115.32,163.191  c5.115-29.566,33.208-49.408,62.804-44.271c29.577,5.099,49.419,33.209,44.304,62.836c-5.121,29.536-33.221,49.393-62.83,44.276  C130.028,220.912,110.193,192.804,115.32,163.191z" fill="#3974B1"/><path d="M345.134,390.947l41.563-1.313l10.369-31.718c1.349-0.576,2.701-1.131,3.998-1.777l34.479,10.051  l24.571-33.535l-18.555-27.646c0.316-1.423,0.643-2.831,0.899-4.251l29.262-21.029l-11.315-40.016l-32.401-2.312l3.896-34.922  l-37.339-18.361l-24.019,23.083c-1.456-0.109-2.904-0.215-4.386-0.254l-25.732-25.101L303,199.94l3.405,33.133  c-0.955,1.102-1.923,2.165-2.806,3.321l-35.703,4.792l-8.807,40.652l28.143,17.656c0.256,1.426,0.632,2.832,0.97,4.252  l-18.206,31.145l26.61,31.965l31.318-11.334c1.297,0.688,2.593,1.336,3.891,1.928L345.134,390.947z M321.654,298.184  c-6.775-23.964,7.135-48.871,31.059-55.629c23.973-6.794,48.86,7.117,55.633,31.072c6.795,23.943-7.115,48.832-31.086,55.627  C353.329,336.025,328.429,322.113,321.654,298.184z" fill="#D0583B"/><path d="M135.482,466.561l32.715-1.025l8.137-24.947c1.058-0.441,2.123-0.893,3.142-1.403l27.118,7.918l19.32-26.366  l-14.598-21.746c0.271-1.122,0.515-2.219,0.72-3.338l22.991-16.542l-8.885-31.479l-25.474-1.809l3.049-27.455l-29.352-14.461  l-18.893,18.174c-1.14-0.088-2.278-0.183-3.437-0.205l-20.236-19.746l-29.438,14.237l2.681,26.054  c-0.76,0.864-1.522,1.695-2.223,2.616l-28.059,3.767l-6.941,31.963l22.14,13.896c0.189,1.112,0.497,2.215,0.757,3.331l-14.301,24.49  l20.913,25.141l24.63-8.924c1.017,0.544,2.035,1.063,3.047,1.534L135.482,466.561z M117.016,393.617  c-5.313-18.854,5.625-38.416,24.447-43.736c18.836-5.348,38.407,5.584,43.746,24.417c5.329,18.835-5.61,38.403-24.438,43.751  C141.93,423.388,122.352,412.43,117.016,393.617z" fill="#56AD89"/></svg>