<?xml version="1.0" encoding="UTF-8" standalone="no"?>
<svg
   xmlns:dc="http://purl.org/dc/elements/1.1/"
   xmlns:cc="http://creativecommons.org/ns#"
   xmlns:rdf="http://www.w3.org/1999/02/22-rdf-syntax-ns#"
   xmlns:svg="http://www.w3.org/2000/svg"
   xmlns="http://www.w3.org/2000/svg"
   xmlns:sodipodi="http://sodipodi.sourceforge.net/DTD/sodipodi-0.dtd"
   xmlns:inkscape="http://www.inkscape.org/namespaces/inkscape"
   id="Layer_1"
   version="1.1"
   viewBox="0 0 65 55"
   xml:space="preserve"
   sodipodi:docname="web-design-icon.svg"
   width="65"
   height="55"
   inkscape:version="0.92.5 (2060ec1f9f, 2020-04-08)"><metadata
     id="metadata215"><rdf:RDF><cc:Work
         rdf:about=""><dc:format>image/svg+xml</dc:format><dc:type
           rdf:resource="http://purl.org/dc/dcmitype/StillImage" /><dc:title></dc:title></cc:Work></rdf:RDF></metadata><defs
     id="defs213" /><sodipodi:namedview
     pagecolor="#ffffff"
     bordercolor="#666666"
     borderopacity="1"
     objecttolerance="10"
     gridtolerance="10"
     guidetolerance="10"
     inkscape:pageopacity="0"
     inkscape:pageshadow="2"
     inkscape:window-width="3840"
     inkscape:window-height="2096"
     id="namedview211"
     showgrid="false"
     inkscape:zoom="14.30303"
     inkscape:cx="28.590542"
     inkscape:cy="30.235079"
     inkscape:window-x="0"
     inkscape:window-y="27"
     inkscape:window-maximized="1"
     inkscape:current-layer="Layer_1" /><style
     type="text/css"
     id="style2">
	.st0{fill:#FF5892;}
	.st1{fill:#FFFFFF;}
	.st2{opacity:0.1;}
	.st3{fill:#02BEFF;}
	.st4{opacity:0.3;}
	.st5{fill:#2E3F68;}
	.st6{fill:#FDCB4D;}
	.st7{fill:#DEB8C5;}
	.st8{fill:#C7D9F9;}
	.st9{fill:#019C96;}
	.st10{opacity:0.25;}
	.st11{fill:#CCD1FA;}
	.st12{opacity:0.2;}
	.st13{fill:#FF5635;}
	.st14{fill:#FF5F4A;}
	.st15{fill:#FFDAD4;}
	.st16{fill:#C2EDD4;}
	.st17{fill:#242625;}
	.st18{fill:#C8A8B8;}
	.st19{fill:#06D506;}
	.st20{fill:#BCDCE2;}
	.st21{opacity:0.15;}
	.st22{fill:none;}
	.st23{fill:#EAD3DC;}
	.st24{fill:#F7EDF1;}
	.st25{opacity:0.5;}
	.st26{opacity:0.45;}
	.st27{fill:#E4B946;}
	.st28{opacity:0.4;}
	.st29{fill:#E5E8FC;}
	.st30{fill:#FFFFFF;stroke:#2E3F68;stroke-width:1.5;stroke-linecap:round;stroke-linejoin:round;stroke-miterlimit:10;}
	.st31{fill:#10B6DD;}
	.st32{fill:#F25549;}
	.st33{fill:#FDFDFD;}
	.st34{fill:none;stroke:#2E3F68;stroke-width:1.5;stroke-linecap:round;stroke-linejoin:round;stroke-miterlimit:10;}
	.st35{fill:#B0C1D6;}
	.st36{fill:#E8F9EF;}
	.st37{fill:#86D2FF;}
	.st38{fill:#02BEFF;stroke:#2E3F68;stroke-width:1.5;stroke-linecap:round;stroke-linejoin:round;stroke-miterlimit:10;}
	.st39{enable-background:new    ;}
	.st40{fill:#D5EBE3;}
	.st41{opacity:0.7;}
	.st42{fill:#FFF3E0;}
	.st43{fill:#FFF9F0;}
	.st44{fill:#020202;}
	.st45{fill:#D3D6DD;}
	.st46{fill:#EFDCE2;}
	.st47{fill:#86D2FF;stroke:#2E3F68;stroke-width:1.5;stroke-linecap:round;stroke-linejoin:round;stroke-miterlimit:10;}
	.st48{fill:#F5CDE7;}
	.st49{fill:#1EB975;}
	.st50{opacity:0.8;}
	.st51{fill:#FEDA7C;}
	.st52{fill:#DEEDF0;}
	.st53{fill:#F9AE5B;}
</style><g
     id="g208"
     transform="translate(-0.34957628,-12.747882)"><g
       id="g12"><g
         id="g6"><path
           class="st20"
           d="m 5.82,52.37 c 0,2.03 -0.73,2.76 -2.76,2.76 2.03,0 2.76,0.73 2.76,2.76 0,-2.03 1.73,-2.76 3.76,-2.76 -2.02,0 -3.76,-0.73 -3.76,-2.76 z"
           id="path4"
           inkscape:connector-curvature="0"
           style="fill:#bcdce2" /></g><g
         id="g10"><circle
           class="st20"
           cx="3.5699999"
           cy="50.959999"
           r="1"
           id="circle8"
           style="fill:#bcdce2" /></g></g><g
       id="g206"><g
         id="g16"><path
           class="st3"
           d="M 55.92,20.39 H 13.38 c -1.2,0 -2.18,0.98 -2.18,2.18 v 11.6 h 4.3 c 1.1,0 2,0.9 2,2 V 55.62 H 52.06 V 39.17 h 6.04 v -16.6 c 0,-1.21 -0.98,-2.18 -2.18,-2.18 z"
           id="path14"
           inkscape:connector-curvature="0"
           style="fill:#02beff" /></g><g
         class="st21"
         id="g20"
         style="opacity:0.15"><path
           class="st1"
           d="M 55.92,20.39 H 13.38 c -1.2,0 -2.18,0.98 -2.18,2.18 v 2 c 0,-1.2 0.98,-2.18 2.18,-2.18 h 42.54 c 1.2,0 2.18,0.98 2.18,2.18 v -2 c 0,-1.21 -0.98,-2.18 -2.18,-2.18 z"
           id="path18"
           inkscape:connector-curvature="0"
           style="fill:#ffffff" /></g><g
         id="g24"><rect
           class="st1"
           height="4.27"
           width="11.58"
           x="52.060001"
           y="55.630001"
           id="rect22"
           style="fill:#ffffff" /></g><g
         id="g28"><rect
           class="st14"
           height="12.46"
           width="11.58"
           x="52.060001"
           y="43.169998"
           id="rect26"
           style="fill:#ff5f4a" /></g><g
         id="g32"><rect
           class="st1"
           height="4"
           width="11.58"
           x="52.060001"
           y="39.169998"
           id="rect30"
           style="fill:#ffffff" /></g><g
         id="g36"><path
           class="st5"
           d="M 63.65,60.64 H 52.06 c -0.41,0 -0.75,-0.34 -0.75,-0.75 v -4.27 c 0,-0.41 0.34,-0.75 0.75,-0.75 h 11.58 c 0.41,0 0.75,0.34 0.75,0.75 v 4.27 c 0.01,0.42 -0.33,0.75 -0.74,0.75 z M 52.81,59.14 H 62.9 V 56.37 H 52.81 Z"
           id="path34"
           inkscape:connector-curvature="0"
           style="fill:#2e3f68" /></g><g
         id="g40"><path
           class="st5"
           d="M 63.65,56.38 H 52.06 c -0.41,0 -0.75,-0.34 -0.75,-0.75 V 43.17 c 0,-0.41 0.34,-0.75 0.75,-0.75 h 11.58 c 0.41,0 0.75,0.34 0.75,0.75 v 12.46 c 0.01,0.41 -0.33,0.75 -0.74,0.75 z M 52.81,54.88 H 62.9 V 43.92 H 52.81 Z"
           id="path38"
           inkscape:connector-curvature="0"
           style="fill:#2e3f68" /></g><g
         id="g44"><path
           class="st5"
           d="M 63.65,43.92 H 52.06 c -0.41,0 -0.75,-0.34 -0.75,-0.75 v -4 c 0,-0.41 0.34,-0.75 0.75,-0.75 h 11.58 c 0.41,0 0.75,0.34 0.75,0.75 v 4 c 0.01,0.41 -0.33,0.75 -0.74,0.75 z M 52.81,42.42 H 62.9 v -2.5 H 52.81 Z"
           id="path42"
           inkscape:connector-curvature="0"
           style="fill:#2e3f68" /></g><g
         id="g48"><polygon
           class="st8"
           points="42.41,55.63 46.08,59.89 23.22,59.89 26.89,55.63 "
           id="polygon46"
           style="fill:#c7d9f9" /></g><g
         id="g52"><path
           class="st7"
           d="M 15.5,59.89 H 3.93 c -1.1,0 -2,-0.9 -2,-2 V 36.17 c 0,-1.1 0.9,-2 2,-2 H 15.5 c 1.1,0 2,0.9 2,2 v 21.72 c 0,1.11 -0.89,2 -2,2 z"
           id="path50"
           inkscape:connector-curvature="0"
           style="fill:#deb8c5" /></g><g
         class="st2"
         id="g56"
         style="opacity:0.1"><path
           d="m 17.5,55.89 v 2 c 0,1.1 -0.9,2 -2,2 H 3.92 c -1.1,0 -2,-0.9 -2,-2 v -2 c 0,1.1 0.9,2 2,2 H 15.5 c 1.1,0 2,-0.9 2,-2 z"
           id="path54"
           inkscape:connector-curvature="0" /></g><g
         class="st21"
         id="g60"
         style="opacity:0.15"><path
           class="st1"
           d="M 15.5,34.17 H 3.93 c -1.1,0 -2,0.9 -2,2 v 2 c 0,-1.1 0.9,-2 2,-2 H 15.5 c 1.1,0 2,0.9 2,2 v -2 c 0,-1.1 -0.89,-2 -2,-2 z"
           id="path58"
           inkscape:connector-curvature="0"
           style="fill:#ffffff" /></g><g
         id="g64"><rect
           class="st1"
           height="6.54"
           width="34.560001"
           x="17.5"
           y="49.080002"
           id="rect62"
           style="fill:#ffffff" /></g><g
         class="st2"
         id="g68"
         style="opacity:0.1"><rect
           height="2"
           width="34.560001"
           x="17.5"
           y="53.619999"
           id="rect66" /></g><g
         id="g72"><circle
           class="st6"
           cx="25.42"
           cy="31.35"
           r="6.2800002"
           id="circle70"
           style="fill:#fdcb4d" /></g><g
         class="st21"
         id="g76"
         style="opacity:0.15"><path
           class="st1"
           d="m 25.42,27.07 c 3.12,0 5.71,2.29 6.19,5.28 0.05,-0.33 0.09,-0.66 0.09,-1 0,-3.47 -2.81,-6.28 -6.28,-6.28 -3.47,0 -6.28,2.81 -6.28,6.28 0,0.34 0.03,0.67 0.09,1 0.48,-2.99 3.06,-5.28 6.19,-5.28 z"
           id="path74"
           inkscape:connector-curvature="0"
           style="fill:#ffffff" /></g><g
         id="g80"><circle
           class="st1"
           cx="25.42"
           cy="30.35"
           r="2.22"
           id="circle78"
           style="fill:#ffffff" /></g><g
         id="g84"><path
           class="st8"
           d="m 25.42,37.63 c 1.57,0 3.01,-0.58 4.11,-1.54 -0.32,-1.99 -2.03,-3.51 -4.11,-3.51 -2.08,0 -3.79,1.52 -4.11,3.51 1.1,0.95 2.53,1.54 4.11,1.54 z"
           id="path82"
           inkscape:connector-curvature="0"
           style="fill:#c7d9f9" /></g><g
         id="g88"><rect
           class="st6"
           height="3.3699999"
           width="9.7299995"
           x="4.8499999"
           y="37.52"
           id="rect86"
           style="fill:#fdcb4d" /></g><g
         id="g92"><rect
           class="st1"
           height="3.3699999"
           width="3.3800001"
           x="4.8499999"
           y="43.66"
           id="rect90"
           style="fill:#ffffff" /></g><g
         id="g96"><rect
           class="st1"
           height="3.3699999"
           width="3.3800001"
           x="11.2"
           y="43.66"
           id="rect94"
           style="fill:#ffffff" /></g><g
         id="g100"><rect
           class="st8"
           height="3.3699999"
           width="3.3800001"
           x="23.450001"
           y="40.66"
           id="rect98"
           style="fill:#c7d9f9" /></g><g
         id="g104"><rect
           class="st0"
           height="3.3699999"
           width="3.3800001"
           x="29.799999"
           y="40.66"
           id="rect102"
           style="fill:#ff5892" /></g><g
         id="g108"><rect
           class="st8"
           height="3.3699999"
           width="3.3800001"
           x="36.130001"
           y="40.66"
           id="rect106"
           style="fill:#c7d9f9" /></g><g
         id="g112"><rect
           class="st0"
           height="3.3699999"
           width="3.3800001"
           x="42.459999"
           y="40.66"
           id="rect110"
           style="fill:#ff5892" /></g><g
         id="g116"><rect
           class="st0"
           height="4.9400001"
           width="18.32"
           x="35.470001"
           y="25.07"
           id="rect114"
           style="fill:#ff5892" /></g><g
         id="g120"><path
           class="st5"
           d="M 46.08,60.64 H 23.22 c -0.29,0 -0.56,-0.17 -0.68,-0.44 -0.12,-0.27 -0.08,-0.58 0.11,-0.8 l 3.67,-4.27 c 0.14,-0.17 0.35,-0.26 0.57,-0.26 h 15.52 c 0.22,0 0.43,0.1 0.57,0.26 l 3.67,4.27 c 0.19,0.22 0.24,0.54 0.11,0.8 -0.12,0.27 -0.39,0.44 -0.68,0.44 z M 24.85,59.14 H 44.44 L 42.06,56.37 H 27.23 Z"
           id="path118"
           inkscape:connector-curvature="0"
           style="fill:#2e3f68" /></g><g
         id="g124"><path
           class="st5"
           d="M 52.06,49.83 H 17.5 c -0.41,0 -0.75,-0.34 -0.75,-0.75 0,-0.41 0.34,-0.75 0.75,-0.75 h 34.56 c 0.41,0 0.75,0.34 0.75,0.75 0,0.41 -0.33,0.75 -0.75,0.75 z"
           id="path122"
           inkscape:connector-curvature="0"
           style="fill:#2e3f68" /></g><g
         id="g128"><circle
           class="st5"
           cx="34.650002"
           cy="52.349998"
           r="0.81999999"
           id="circle126"
           style="fill:#2e3f68" /></g><g
         id="g132"><path
           class="st5"
           d="M 15.5,60.64 H 3.93 c -1.52,0 -2.75,-1.23 -2.75,-2.75 V 36.17 c 0,-1.52 1.23,-2.75 2.75,-2.75 H 15.5 c 1.52,0 2.75,1.23 2.75,2.75 v 21.72 c 0,1.52 -1.23,2.75 -2.75,2.75 z M 3.93,34.92 c -0.69,0 -1.25,0.56 -1.25,1.25 v 21.72 c 0,0.69 0.56,1.25 1.25,1.25 H 15.5 c 0.69,0 1.25,-0.56 1.25,-1.25 V 36.17 c 0,-0.69 -0.56,-1.25 -1.25,-1.25 z"
           id="path130"
           inkscape:connector-curvature="0"
           style="fill:#2e3f68" /></g><g
         id="g136"><path
           class="st5"
           d="M 52.06,56.37 H 17.5 c -0.2,0 -0.39,-0.08 -0.53,-0.22 -0.14,-0.14 -0.22,-0.33 -0.22,-0.53 v -7.47 c 0,-0.41 0.34,-0.75 0.75,-0.75 0.42,0 0.75,0.34 0.75,0.75 v 6.72 H 51.31 V 39.16 c 0,-0.19 0.08,-0.39 0.23,-0.53 0.13,-0.14 0.33,-0.22 0.52,-0.22 h 5.29 v -8.66 c 0,-0.02 0,-0.04 0,-0.06 0,-0.42 0.4,-0.78 0.79,-0.75 0.4,0.02 0.71,0.35 0.71,0.75 v 9.47 c 0,0.2 -0.08,0.39 -0.22,0.53 -0.14,0.15 -0.33,0.22 -0.53,0.22 h -5.29 v 15.71 c 0,0.2 -0.07,0.39 -0.21,0.53 -0.15,0.14 -0.34,0.22 -0.54,0.22 z M 17.5,45.9 c -0.41,0 -0.75,-0.33 -0.75,-0.75 v -8.98 c 0,-0.69 -0.56,-1.25 -1.25,-1.25 h -4.3 c -0.2,0 -0.39,-0.08 -0.53,-0.22 -0.14,-0.14 -0.22,-0.33 -0.22,-0.53 v -11.6 c 0,-1.62 1.31,-2.93 2.93,-2.94 h 42.54 c 1.62,0.01 2.93,1.32 2.93,2.94 v 4.11 0.01 c 0,0.42 -0.33,0.75 -0.75,0.75 -0.41,0 -0.75,-0.33 -0.75,-0.75 v -4.12 c 0,-0.79 -0.64,-1.43 -1.43,-1.44 H 13.38 c -0.79,0.01 -1.43,0.65 -1.43,1.44 v 10.85 h 3.55 c 1.52,0 2.75,1.24 2.75,2.75 v 8.98 c 0,0.42 -0.33,0.75 -0.75,0.75 z"
           id="path134"
           inkscape:connector-curvature="0"
           style="fill:#2e3f68" /></g><g
         id="g140"><path
           class="st5"
           d="M 11.42,57.04 H 8.01 c -0.41,0 -0.75,-0.34 -0.75,-0.75 0,-0.41 0.34,-0.75 0.75,-0.75 h 3.41 c 0.41,0 0.75,0.34 0.75,0.75 0,0.41 -0.34,0.75 -0.75,0.75 z"
           id="path138"
           inkscape:connector-curvature="0"
           style="fill:#2e3f68" /></g><g
         id="g144"><circle
           class="st5"
           cx="57.93"
           cy="57.759998"
           r="0.75"
           id="circle142"
           style="fill:#2e3f68" /></g><g
         id="g148"><path
           class="st5"
           d="m 25.42,33.32 c -1.64,0 -2.97,-1.33 -2.97,-2.97 0,-1.64 1.33,-2.97 2.97,-2.97 1.64,0 2.97,1.33 2.97,2.97 0,1.64 -1.33,2.97 -2.97,2.97 z m 0,-4.44 c -0.81,0 -1.47,0.66 -1.47,1.47 0,0.81 0.66,1.47 1.47,1.47 0.81,0 1.47,-0.66 1.47,-1.47 0,-0.81 -0.66,-1.47 -1.47,-1.47 z"
           id="path146"
           inkscape:connector-curvature="0"
           style="fill:#2e3f68" /></g><g
         id="g152"><path
           class="st5"
           d="m 25.42,38.38 c -1.69,0 -3.32,-0.61 -4.6,-1.72 -0.2,-0.17 -0.29,-0.43 -0.25,-0.69 0.38,-2.4 2.42,-4.15 4.85,-4.15 2.42,0 4.46,1.74 4.85,4.15 0.04,0.26 -0.05,0.52 -0.25,0.69 -1.28,1.1 -2.92,1.72 -4.6,1.72 z m -3.28,-2.59 c 1.9,1.4 4.66,1.4 6.55,0 -0.42,-1.45 -1.74,-2.47 -3.28,-2.47 -1.53,0 -2.85,1.02 -3.27,2.47 z"
           id="path150"
           inkscape:connector-curvature="0"
           style="fill:#2e3f68" /></g><g
         id="g156"><path
           class="st5"
           d="M 14.58,41.64 H 4.85 C 4.44,41.64 4.1,41.3 4.1,40.89 v -3.37 c 0,-0.41 0.34,-0.75 0.75,-0.75 h 9.73 c 0.41,0 0.75,0.34 0.75,0.75 v 3.37 c 0,0.42 -0.34,0.75 -0.75,0.75 z M 5.6,40.14 h 8.23 V 38.27 H 5.6 Z"
           id="path154"
           inkscape:connector-curvature="0"
           style="fill:#2e3f68" /></g><g
         id="g160"><path
           class="st5"
           d="M 8.23,47.78 H 4.85 C 4.44,47.78 4.1,47.44 4.1,47.03 v -3.37 c 0,-0.41 0.34,-0.75 0.75,-0.75 h 3.38 c 0.41,0 0.75,0.34 0.75,0.75 v 3.37 c 0,0.42 -0.34,0.75 -0.75,0.75 z M 5.6,46.28 H 7.48 V 44.41 H 5.6 Z"
           id="path158"
           inkscape:connector-curvature="0"
           style="fill:#2e3f68" /></g><g
         id="g164"><path
           class="st5"
           d="M 14.58,47.78 H 11.2 c -0.41,0 -0.75,-0.34 -0.75,-0.75 v -3.37 c 0,-0.41 0.34,-0.75 0.75,-0.75 h 3.38 c 0.41,0 0.75,0.34 0.75,0.75 v 3.37 c 0,0.42 -0.34,0.75 -0.75,0.75 z m -2.63,-1.5 h 1.88 v -1.87 h -1.88 z"
           id="path162"
           inkscape:connector-curvature="0"
           style="fill:#2e3f68" /></g><g
         id="g168"><path
           class="st5"
           d="m 26.84,44.78 h -3.38 c -0.41,0 -0.75,-0.34 -0.75,-0.75 v -3.37 c 0,-0.41 0.34,-0.75 0.75,-0.75 h 3.38 c 0.41,0 0.75,0.34 0.75,0.75 v 3.37 c 0,0.42 -0.34,0.75 -0.75,0.75 z m -2.64,-1.5 h 1.88 V 41.41 H 24.2 Z"
           id="path166"
           inkscape:connector-curvature="0"
           style="fill:#2e3f68" /></g><g
         id="g172"><path
           class="st5"
           d="M 33.18,44.78 H 29.8 c -0.41,0 -0.75,-0.34 -0.75,-0.75 v -3.37 c 0,-0.41 0.34,-0.75 0.75,-0.75 h 3.38 c 0.41,0 0.75,0.34 0.75,0.75 v 3.37 c 0,0.42 -0.33,0.75 -0.75,0.75 z m -2.63,-1.5 h 1.88 v -1.87 h -1.88 z"
           id="path170"
           inkscape:connector-curvature="0"
           style="fill:#2e3f68" /></g><g
         id="g176"><path
           class="st5"
           d="m 39.51,44.78 h -3.38 c -0.41,0 -0.75,-0.34 -0.75,-0.75 v -3.37 c 0,-0.41 0.34,-0.75 0.75,-0.75 h 3.38 c 0.41,0 0.75,0.34 0.75,0.75 v 3.37 c 0,0.42 -0.33,0.75 -0.75,0.75 z m -2.63,-1.5 h 1.88 v -1.87 h -1.88 z"
           id="path174"
           inkscape:connector-curvature="0"
           style="fill:#2e3f68" /></g><g
         id="g180"><path
           class="st5"
           d="m 45.85,44.78 h -3.38 c -0.41,0 -0.75,-0.34 -0.75,-0.75 v -3.37 c 0,-0.41 0.34,-0.75 0.75,-0.75 h 3.38 c 0.41,0 0.75,0.34 0.75,0.75 v 3.37 c 0,0.42 -0.34,0.75 -0.75,0.75 z m -2.64,-1.5 h 1.88 v -1.87 h -1.88 z"
           id="path178"
           inkscape:connector-curvature="0"
           style="fill:#2e3f68" /></g><g
         class="st21"
         id="g184"
         style="opacity:0.15"><rect
           class="st1"
           height="2"
           width="18.32"
           x="35.470001"
           y="25.07"
           id="rect182"
           style="fill:#ffffff" /></g><g
         id="g188"><path
           class="st5"
           d="M 47.81,33.35 H 35.47 c -0.41,0 -0.75,-0.34 -0.75,-0.75 0,-0.41 0.34,-0.75 0.75,-0.75 h 12.35 c 0.41,0 0.75,0.34 0.75,0.75 0,0.41 -0.34,0.75 -0.76,0.75 z"
           id="path186"
           inkscape:connector-curvature="0"
           style="fill:#2e3f68" /></g><g
         id="g192"><path
           class="st5"
           d="M 47.81,38.71 H 35.47 c -0.41,0 -0.75,-0.34 -0.75,-0.75 0,-0.41 0.34,-0.75 0.75,-0.75 h 12.35 c 0.41,0 0.75,0.34 0.75,0.75 0,0.41 -0.34,0.75 -0.76,0.75 z"
           id="path190"
           inkscape:connector-curvature="0"
           style="fill:#2e3f68" /></g><g
         id="g196"><path
           class="st5"
           d="M 47.81,36.03 H 35.47 c -0.41,0 -0.75,-0.34 -0.75,-0.75 0,-0.41 0.34,-0.75 0.75,-0.75 h 12.35 c 0.41,0 0.75,0.34 0.75,0.75 0,0.41 -0.34,0.75 -0.76,0.75 z"
           id="path194"
           inkscape:connector-curvature="0"
           style="fill:#2e3f68" /></g><g
         id="g200"><path
           class="st5"
           d="M 53.79,30.77 H 35.47 c -0.41,0 -0.75,-0.34 -0.75,-0.75 v -4.94 c 0,-0.41 0.34,-0.75 0.75,-0.75 h 18.32 c 0.41,0 0.75,0.34 0.75,0.75 v 4.94 c 0,0.41 -0.34,0.75 -0.75,0.75 z M 36.22,29.27 H 53.04 V 25.83 H 36.22 Z"
           id="path198"
           inkscape:connector-curvature="0"
           style="fill:#2e3f68" /></g><g
         id="g204"><path
           class="st5"
           d="m 25.42,38.38 c -3.87,0 -7.03,-3.15 -7.03,-7.03 0,-3.88 3.15,-7.03 7.03,-7.03 3.88,0 7.03,3.15 7.03,7.03 0,3.88 -3.16,7.03 -7.03,7.03 z m 0,-12.56 c -3.05,0 -5.53,2.48 -5.53,5.53 0,3.05 2.48,5.53 5.53,5.53 3.05,0 5.53,-2.48 5.53,-5.53 0,-3.05 -2.49,-5.53 -5.53,-5.53 z"
           id="path202"
           inkscape:connector-curvature="0"
           style="fill:#2e3f68" /></g></g></g></svg>